<svg xmlns="http://www.w3.org/2000/svg" style="display: none;">
  <symbol id="floppy" viewBox="-1 0 32 32">
    <path fill="#000" d="M.5 0h2.15385v2.15385H.5zM.5 2.1543h2.15385v2.15385H.5z" />
    <path fill="#000" d="M.5 4.30762h2.15385v2.15385H.5zM.5 6.46191h2.15385v2.15385H.5z" />
    <path fill="#000" d="M.5 8.61523h2.15385v2.15385H.5zM.5 10.7695h2.15385v2.15385H.5z" />
     <path fill="#000" d="M.5 12.9229h2.15385v2.15385H.5zM.5 15.0771h2.15385v2.15385H.5z" />            <path fill="#000" d="M.5 17.2305h2.15385v2.15385H.5zM.5 19.3848h2.15385v2.15385H.5z" />
    <path fill="#000" d="M.5 21.5381h2.15385v2.15385H.5zM.5 23.6924h2.15385v2.15385H.5z" />
    <path fill="#000" d="M.5 25.8457h2.15385v2.15385H.5zM24.1927 0v2.15385h-2.15385V0z" />
    <path fill="#000" d="M22.0391 0v2.15385h-2.15385V0zM19.8841 0v2.15385h-2.15385V0z" />
    <path fill="#000" d="M17.7305 0v2.15385h-2.15385V0z" />
    <path fill="#000" d="M15.5768 0v2.15385h-2.15385V0z" />
    <path fill="#000" d="M13.4232 0v2.15385h-2.15385V0z" />
    <path fill="#000" d="M11.2695 0v2.15385H9.11565V0z" />
    <path fill="#000" d="M9.11589 0v2.15385H6.96204V0zM6.96094 0v2.15385H4.80709V0z" />
    <path fill="#000" d="M4.8073 0v2.15385H2.65345V0zM26.3464 2.1543v2.15385h-2.15385V2.1543zM6.96094 4.30762v2.15385H4.80709V4.30762z" />
    <path fill="#000" d="M6.96094 2.1543v2.15385H4.80709V2.1543zM6.96094 6.46191v2.15385H4.80709V6.46191zM22.0391 4.30762v2.15385h-2.15385V4.30762z" />
    <path fill="#000" d="M22.0391 2.1543v2.15385h-2.15385V2.1543zM22.0391 6.46191v2.15385h-2.15385V6.46191zM17.7305 4.30762v2.15385h-2.15385V4.30762z" />
    <path fill="#000" d="M17.7305 2.1543v2.15385h-2.15385V2.1543zM17.7305 6.46191v2.15385h-2.15385V6.46191zM22.0391 8.61523v2.15385h-2.15385V8.61523z" />
    <path fill="#000" d="M19.8841 8.61523v2.15385h-2.15385V8.61523z" />
    <path fill="#000" d="M17.7305 8.61523v2.15385h-2.15385V8.61523z" />
    <path fill="#000" d="M15.5768 8.61523v2.15385h-2.15385V8.61523z" />
    <path fill="#000" d="M13.4232 8.61523v2.15385h-2.15385V8.61523z" />
    <path fill="#000" d="M11.2695 8.61523v2.15385H9.11565V8.61523z" />
    <path fill="#000" d="M9.11589 8.61523v2.15385H6.96204V8.61523zM6.96094 8.61523v2.15385H4.80709V8.61523zM24.1927 15.0771v2.15385h-2.15385V15.0771z" />
    <path fill="#000" d="M22.0391 15.0771v2.15385h-2.15385V15.0771zM19.8841 15.0771v2.15385h-2.15385V15.0771z" />
    <path fill="#000" d="M17.7305 15.0771v2.15385h-2.15385V15.0771z" />
    <path fill="#000" d="M15.5768 15.0771v2.15385h-2.15385V15.0771z" />
    <path fill="#000" d="M13.4232 15.0771v2.15385h-2.15385V15.0771z" />
    <path fill="#000" d="M11.2695 15.0771v2.15385H9.11565V15.0771z" />
    <path fill="#000" d="M9.11589 15.0771v2.15385H6.96204V15.0771zM6.96094 15.0771v2.15385H4.80709V15.0771zM24.1927 17.2305v2.15385h-2.15385V17.2305z" />
    <path fill="#000" d="M6.96094 17.2305v2.15385H4.80709V17.2305zM24.1927 19.3848v2.15385h-2.15385V19.3848zM6.96094 19.3848v2.15385H4.80709V19.3848z" />
    <path fill="#000" d="M24.1927 21.5381v2.15385h-2.15385V21.5381zM6.96094 21.5381v2.15385H4.80709V21.5381zM6.96094 23.6924v2.15385H4.80709V23.6924zM24.1927 23.6924v2.15385h-2.15385V23.6924z" />
    <path fill="#000" d="M26.3464 25.8457v2.15385h-2.15385V25.8457z" />
    <path fill="#000" d="M24.1927 25.8457v2.15385h-2.15385V25.8457z" />
    <path fill="#000" d="M22.0391 25.8457v2.15385h-2.15385V25.8457zM19.8841 25.8457v2.15385h-2.15385V25.8457z" />
    <path fill="#000" d="M17.7305 25.8457v2.15385h-2.15385V25.8457z" />
    <path fill="#000" d="M15.5768 25.8457v2.15385h-2.15385V25.8457z" />
    <path fill="#000" d="M13.4232 25.8457v2.15385h-2.15385V25.8457z" />
    <path fill="#000" d="M11.2695 25.8457v2.15385H9.11565V25.8457z" />
    <path fill="#000" d="M9.11589 25.8457v2.15385H6.96204V25.8457zM6.96094 25.8457v2.15385H4.80709V25.8457z" />
    <path fill="#000" d="M4.8073 25.8457v2.15385H2.65345V25.8457zM28.5 28h-2.15385v-2.15385H28.5zM28.5 25.8457h-2.15385v-2.15385H28.5z" />
    <path fill="#000" d="M28.5 23.6924h-2.15385v-2.15385H28.5zM28.5 21.5381h-2.15385v-2.15385H28.5z" />
    <path fill="#000" d="M28.5 19.3848h-2.15385v-2.15385H28.5zM28.5 17.2305h-2.15385v-2.15385H28.5z" />
    <path fill="#000" d="M28.5 15.0771h-2.15385v-2.15385H28.5zM28.5 12.9229h-2.15385v-2.15385H28.5z" />
    <path fill="#000" d="M28.5 10.7695h-2.15385V8.61565H28.5zM28.5 8.61523h-2.15385V6.46138H28.5z" />
    <path fill="#000" d="M28.5 6.46191h-2.15385V4.30806H28.5z" />
  </symbol>
</svg>